<svg width="130" height="46" viewBox="0 0 130 46" fill="none" xmlns="http://www.w3.org/2000/svg">
<path d="M26.3107 31.7754C26.5778 33.057 27.0611 33.96 27.7591 34.4856C28.4571 35.0113 29.4547 35.2741 30.7561 35.2741C31.3877 35.2741 31.9318 35.1978 32.391 35.0452C32.8502 34.8926 33.2275 34.6863 33.5242 34.4291C33.821 34.1705 34.0456 33.8794 34.1982 33.5544C34.3508 33.2294 34.4272 32.8861 34.4272 32.5215C34.4272 31.7952 34.1926 31.2554 33.7249 30.9008C33.2558 30.5475 32.6679 30.2691 31.9614 30.0685C31.2535 29.8678 30.4891 29.6955 29.6667 29.5527C28.8443 29.41 28.0798 29.1938 27.3719 28.907C26.6654 28.6201 26.0762 28.209 25.6085 27.6734C25.1408 27.1379 24.9062 26.3833 24.9062 25.4083C24.9062 24.1663 25.3598 23.1475 26.2684 22.3548C27.1769 21.5621 28.4628 21.165 30.1259 21.165C31.789 21.165 33.0367 21.5239 34.04 22.2403C35.0432 22.9568 35.6508 24.1578 35.8614 25.8393H34.1121C33.958 24.6919 33.5242 23.8851 32.8064 23.416C32.09 22.9483 31.1871 22.7137 30.0962 22.7137C29.0054 22.7137 28.1745 22.9483 27.6008 23.416C27.0271 23.8851 26.7403 24.5012 26.7403 25.2656C26.7403 25.9354 26.9735 26.4469 27.4426 26.8002C27.9103 27.1534 28.4981 27.4403 29.206 27.6607C29.9125 27.8811 30.677 28.0761 31.4994 28.2485C32.3203 28.4209 33.0862 28.664 33.7927 28.9791C34.4992 29.2942 35.0884 29.7195 35.5562 30.255C36.0239 30.7906 36.2584 31.5366 36.2584 32.4918C36.2584 33.1998 36.1044 33.8257 35.7992 34.3697C35.4926 34.9152 35.0729 35.3688 34.5374 35.7319C34.0018 36.095 33.366 36.3678 32.6312 36.5486C31.895 36.7295 31.0868 36.8213 30.2079 36.8213C29.329 36.8213 28.549 36.6928 27.8707 36.4342C27.1925 36.1756 26.6131 35.8181 26.1355 35.3589C25.6579 34.8996 25.2849 34.3655 25.0178 33.7537C24.7494 33.1418 24.5967 32.4819 24.5586 31.7754H26.3107Z" fill="#2D2D2D"/>
<path d="M45.5508 36.8199C44.5942 36.8001 43.7012 36.6292 42.8689 36.3042C42.0366 35.9792 41.3103 35.4917 40.69 34.8417C40.0683 34.1917 39.5765 33.3792 39.2134 32.4042C38.8502 31.4292 38.668 30.2918 38.668 28.9918C38.668 27.9023 38.8107 26.8835 39.0975 25.9382C39.3844 24.9915 39.8139 24.1649 40.3876 23.4584C40.9613 22.7519 41.6777 22.1923 42.5382 21.7811C43.3988 21.3699 44.402 21.165 45.5494 21.165C46.6968 21.165 47.7283 21.3713 48.5888 21.7811C49.4493 22.1923 50.1657 22.7462 50.7394 23.4442C51.3131 24.1423 51.7384 24.9689 52.0154 25.9241C52.2923 26.8807 52.4308 27.9023 52.4308 28.9918C52.4308 30.1773 52.2683 31.2484 51.9433 32.2036C51.6183 33.1602 51.1549 33.9812 50.5529 34.6693C49.951 35.3575 49.2233 35.8873 48.374 36.2604C47.5234 36.6334 46.5823 36.8199 45.5494 36.8199H45.5508ZM50.5981 28.9918C50.5981 28.1129 50.502 27.2905 50.3113 26.5261C50.1205 25.7616 49.8238 25.0975 49.4225 24.5337C49.0212 23.9699 48.5054 23.5262 47.8738 23.1998C47.2422 22.8748 46.4679 22.7123 45.5508 22.7123C44.6338 22.7123 43.882 22.8889 43.2419 23.2436C42.6018 23.5969 42.0804 24.066 41.6791 24.6481C41.2778 25.2317 40.9811 25.9001 40.7903 26.6546C40.5982 27.4106 40.5035 28.1892 40.5035 28.9918C40.5035 29.9088 40.6137 30.7552 40.8327 31.5296C41.0517 32.3039 41.3725 32.968 41.7936 33.5219C42.2147 34.0773 42.7403 34.5068 43.3705 34.812C44.0007 35.1187 44.727 35.2713 45.5494 35.2713C46.4481 35.2713 47.2168 35.0946 47.8569 34.7414C48.497 34.3881 49.0184 33.9148 49.4197 33.3213C49.821 32.7292 50.1177 32.0595 50.3085 31.3134C50.4992 30.5673 50.5953 29.7944 50.5953 28.9904H50.5981V28.9918Z" fill="#2D2D2D"/>
<path d="M65.6529 21.5654H67.3739V36.4191H65.6529V34.3547C65.4239 34.6232 65.1654 34.8987 64.8785 35.1856C64.5917 35.4724 64.2624 35.7352 63.8894 35.974C63.5164 36.2128 63.0811 36.4135 62.5852 36.576C62.0878 36.7385 61.5141 36.8204 60.8641 36.8204C59.8693 36.8204 59.0385 36.682 58.3687 36.405C57.6989 36.1281 57.1592 35.7409 56.7494 35.2435C56.3382 34.7461 56.0415 34.1682 55.8606 33.5083C55.6783 32.8484 55.5879 32.1278 55.5879 31.3436V21.5654H57.309V31.3153C57.309 32.5969 57.6057 33.5761 58.1977 34.2544C58.7898 34.9326 59.7648 35.2718 61.1227 35.2718C61.8292 35.2718 62.4651 35.1333 63.0289 34.8563C63.5927 34.5794 64.066 34.1922 64.449 33.6948C64.8305 33.1974 65.1272 32.6054 65.3378 31.9172C65.5483 31.2291 65.6529 30.4745 65.6529 29.6522V21.5654Z" fill="#2D2D2D"/>
<path d="M71.7891 36.4201V15.7744H73.5101V36.4201H71.7891Z" fill="#2D2D2D"/>
<path d="M77.8965 36.4201V15.7744H79.6175V23.6308C80.3057 22.9045 81.0179 22.3125 81.754 21.8532C82.4902 21.394 83.3748 21.1651 84.4063 21.1651C85.3248 21.1651 86.174 21.3234 86.9582 21.6385C87.7424 21.9536 88.4009 22.5032 88.9364 23.2875C89.2996 23.823 89.5144 24.3727 89.5822 24.9365C89.6486 25.5003 89.6825 26.0881 89.6825 26.6999V36.4201H87.9614V26.7282C87.9614 25.39 87.6647 24.3868 87.0727 23.717C86.4792 23.0487 85.4957 22.7138 84.1194 22.7138C83.5839 22.7138 83.0964 22.7957 82.657 22.9582C82.2175 23.1207 81.8204 23.3355 81.4672 23.604C81.1139 23.8725 80.813 24.1777 80.5643 24.521C80.3156 24.8658 80.1248 25.229 79.9906 25.6105C79.8182 26.0881 79.7136 26.5473 79.6755 26.9868C79.6373 27.4262 79.6175 27.9038 79.6175 28.421V36.4215H77.8965V36.4201Z" fill="#2D2D2D"/>
<path d="M94.9005 29.3931C94.9005 30.1957 95.0051 30.9559 95.2156 31.6723C95.4262 32.3887 95.737 33.0104 96.1482 33.5361C96.5594 34.0617 97.0794 34.4828 97.711 34.7979C98.3426 35.113 99.0689 35.2713 99.8899 35.2713C101.017 35.2713 101.984 34.9745 102.787 34.3825C103.589 33.7904 104.125 32.9482 104.393 31.8588H106.314C106.103 32.5667 105.826 33.221 105.483 33.8229C105.138 34.4249 104.708 34.9519 104.193 35.3998C103.677 35.8492 103.065 36.1982 102.357 36.4469C101.649 36.6956 100.828 36.8199 99.8913 36.8199C98.7058 36.8199 97.6842 36.6193 96.8236 36.218C95.9631 35.8167 95.2552 35.267 94.7013 34.569C94.146 33.871 93.7362 33.05 93.4677 32.1033C93.1992 31.1565 93.0664 30.1392 93.0664 29.0497C93.0664 27.9603 93.2247 26.9372 93.5398 25.982C93.8549 25.0268 94.3042 24.1903 94.8878 23.4725C95.4714 22.7547 96.1835 22.1923 97.0243 21.7811C97.865 21.3699 98.8217 21.165 99.8913 21.165C101.937 21.165 103.543 21.8673 104.708 23.2733C105.874 24.6778 106.448 26.7196 106.429 29.3959H94.9019V29.3931H94.9005ZM104.591 27.9589C104.591 27.2326 104.491 26.5487 104.29 25.9086C104.089 25.2685 103.793 24.7146 103.401 24.2454C103.01 23.7777 102.517 23.4047 101.925 23.1277C101.331 22.8508 100.653 22.7123 99.8885 22.7123C99.124 22.7123 98.45 22.8564 97.8664 23.1419C97.2829 23.4287 96.7869 23.8116 96.3757 24.2892C95.9645 24.7668 95.6353 25.3222 95.3866 25.9524C95.1379 26.584 94.9754 27.2523 94.8991 27.9603H104.591V27.9589Z" fill="#2D2D2D"/>
<path d="M110.041 36.4201V15.7744H111.762V36.4201H110.041Z" fill="#2D2D2D"/>
<path d="M118.071 42.27H116.35V21.5663H118.071V24.1762H118.129C118.377 23.6986 118.697 23.269 119.089 22.8861C119.481 22.5032 119.912 22.1881 120.38 21.9394C120.847 21.6907 121.331 21.4999 121.828 21.3657C122.325 21.2314 122.813 21.165 123.29 21.165C124.494 21.165 125.517 21.3657 126.359 21.767C127.2 22.1683 127.894 22.718 128.438 23.416C128.982 24.114 129.379 24.9406 129.628 25.8958C129.876 26.8525 130.001 27.8741 130.001 28.9635C130.001 29.9964 129.867 30.9898 129.6 31.945C129.331 32.9016 128.926 33.7367 128.38 34.4545C127.836 35.1709 127.148 35.7446 126.316 36.1756C125.483 36.6051 124.504 36.8213 123.377 36.8213C122.325 36.8213 121.316 36.5868 120.351 36.1191C119.386 35.6514 118.626 34.9576 118.072 34.0405V42.27H118.071ZM118.071 29.0511C118.071 29.8933 118.185 30.6902 118.415 31.4462C118.644 32.2022 118.975 32.8606 119.405 33.4244C119.834 33.9882 120.36 34.4376 120.982 34.7725C121.602 35.1073 122.305 35.2741 123.09 35.2741C123.969 35.2741 124.739 35.0975 125.397 34.7442C126.057 34.3909 126.597 33.9077 127.018 33.2958C127.439 32.684 127.744 31.9718 127.935 31.1594C128.126 30.3469 128.203 29.4722 128.165 28.5354C128.165 27.5985 128.037 26.7719 127.778 26.0555C127.52 25.3391 127.162 24.7315 126.703 24.2341C126.244 23.7367 125.708 23.3595 125.096 23.1009C124.484 22.8423 123.816 22.7137 123.09 22.7137C122.287 22.7137 121.569 22.8762 120.939 23.2012C120.309 23.5262 119.782 23.9713 119.362 24.5351C118.941 25.0989 118.622 25.7687 118.401 26.543C118.181 27.3173 118.072 28.1539 118.072 29.0525H118.071V29.0511Z" fill="#2D2D2D"/>
<path d="M28.6747 15.5701L20.636 19.1083L5.22278 10.3193L28.6747 0V15.5701Z" fill="#2D2D2D"/>
<path d="M20.7898 21.1445V36.7175L20.6528 36.7796L20.0395 37.0481L12.9037 40.1695V32.4021L12.3442 32.6607L8.97552 34.2192V41.8863L0 45.8117V30.2373L4.58102 28.2337L5.19428 27.9652L5.80611 27.6967L20.7898 21.1445Z" fill="#2D2D2D"/>
<path d="M4.30078 27.024L4.49295 11.3818L19.7918 20.2146L4.30078 27.024Z" fill="#17C182"/>
</svg>
