<svg width="130" height="46" fill="none" xmlns="http://www.w3.org/2000/svg"><path d="M26.31 31.775c.268 1.282.751 2.185 1.45 2.71.697.526 1.695.79 2.996.79.632 0 1.176-.077 1.635-.23.46-.152.837-.359 1.133-.616.297-.259.522-.55.674-.875a2.39 2.39 0 00.23-1.032c0-.727-.235-1.267-.703-1.621-.47-.354-1.057-.632-1.764-.832a22.59 22.59 0 00-2.294-.516 11.187 11.187 0 01-2.295-.646 4.594 4.594 0 01-1.764-1.234c-.467-.535-.702-1.29-.702-2.265 0-1.242.454-2.26 1.362-3.053.909-.793 2.195-1.19 3.858-1.19 1.663 0 2.91.359 3.914 1.075 1.003.717 1.61 1.918 1.821 3.6h-1.749c-.154-1.148-.588-1.955-1.306-2.424-.716-.468-1.619-.702-2.71-.702-1.09 0-1.922.234-2.495.702-.574.47-.86 1.085-.86 1.85 0 .67.233 1.18.702 1.534.467.353 1.055.64 1.763.86.707.221 1.471.416 2.293.588a11.4 11.4 0 012.294.731c.706.315 1.295.74 1.763 1.276.468.536.702 1.282.702 2.237 0 .708-.154 1.334-.459 1.878a3.985 3.985 0 01-1.262 1.362c-.535.363-1.171.636-1.906.817a10.15 10.15 0 01-2.423.272c-.879 0-1.659-.128-2.337-.387a5.079 5.079 0 01-1.735-1.075 4.956 4.956 0 01-1.118-1.605 5.64 5.64 0 01-.46-1.979h1.753zm19.24 5.045a7.751 7.751 0 01-2.681-.516 5.989 5.989 0 01-2.179-1.462c-.622-.65-1.113-1.463-1.477-2.438-.363-.975-.545-2.112-.545-3.412 0-1.09.143-2.108.43-3.054a7.178 7.178 0 011.29-2.48 6.135 6.135 0 012.15-1.677c.86-.411 1.864-.616 3.011-.616 1.148 0 2.18.206 3.04.616.86.411 1.577.965 2.15 1.663.574.698 1 1.525 1.276 2.48.277.957.416 1.978.416 3.068 0 1.185-.163 2.256-.488 3.212-.325.956-.788 1.777-1.39 2.465a6.135 6.135 0 01-2.179 1.591c-.85.373-1.792.56-2.825.56h.002zm5.048-7.828c0-.88-.096-1.701-.287-2.466-.19-.764-.487-1.428-.889-1.992a4.28 4.28 0 00-1.548-1.334c-.632-.325-1.406-.488-2.323-.488s-1.669.177-2.31.532a4.524 4.524 0 00-1.562 1.404 6.18 6.18 0 00-.889 2.007 9.45 9.45 0 00-.286 2.337c0 .917.11 1.763.329 2.538.219.774.54 1.438.96 1.992a4.31 4.31 0 001.578 1.29c.63.307 1.356.46 2.178.46.9 0 1.668-.177 2.308-.53a4.456 4.456 0 001.563-1.42 6.353 6.353 0 00.889-2.009c.19-.746.286-1.519.286-2.323h.003v.002zm15.055-7.427h1.72V36.42h-1.72v-2.064c-.23.268-.488.544-.775.83-.286.287-.616.55-.989.789s-.808.44-1.304.602c-.497.163-1.07.244-1.72.244-.996 0-1.827-.138-2.496-.415-.67-.277-1.21-.664-1.62-1.162a4.591 4.591 0 01-.888-1.735 8.106 8.106 0 01-.273-2.164v-9.779h1.721v9.75c0 1.282.297 2.261.889 2.94.592.678 1.567 1.017 2.925 1.017.706 0 1.342-.139 1.906-.416a3.988 3.988 0 001.42-1.161c.382-.498.678-1.09.889-1.778.21-.688.315-1.443.315-2.265v-8.087zM71.79 36.42V15.774h1.72V36.42h-1.72zm6.107 0V15.774h1.72v7.857c.689-.727 1.4-1.319 2.137-1.778.736-.459 1.62-.688 2.652-.688.919 0 1.768.158 2.552.474.784.315 1.443.864 1.978 1.649.364.535.578 1.085.646 1.648.067.564.1 1.152.1 1.764v9.72h-1.72v-9.692c0-1.338-.297-2.341-.89-3.011-.593-.668-1.576-1.003-2.953-1.003-.535 0-1.023.082-1.462.244-.44.163-.837.378-1.19.646a4.29 4.29 0 00-1.477 2.006 5.445 5.445 0 00-.314 1.377c-.039.44-.058.917-.058 1.434v8h-1.721zM94.9 29.393c0 .803.105 1.563.316 2.28.21.716.521 1.337.932 1.863.411.526.931.947 1.563 1.262.632.315 1.358.473 2.179.473 1.127 0 2.094-.297 2.897-.889.802-.592 1.338-1.434 1.606-2.523h1.921a9.337 9.337 0 01-.831 1.964 6.08 6.08 0 01-1.29 1.577 5.574 5.574 0 01-1.836 1.047c-.708.249-1.529.373-2.466.373-1.185 0-2.207-.2-3.067-.602a5.778 5.778 0 01-2.123-1.649c-.555-.698-.965-1.519-1.233-2.466a11.148 11.148 0 01-.402-3.053c0-1.09.159-2.113.474-3.068a7.815 7.815 0 011.348-2.51 6.262 6.262 0 012.136-1.69c.841-.412 1.798-.617 2.867-.617 2.046 0 3.652.702 4.817 2.108 1.166 1.405 1.74 3.447 1.721 6.123H94.902v-.003H94.9zm9.691-1.434c0-.726-.1-1.41-.301-2.05a4.805 4.805 0 00-.889-1.664 4.23 4.23 0 00-1.476-1.117c-.594-.277-1.272-.416-2.037-.416-.764 0-1.438.144-2.022.43a4.65 4.65 0 00-1.49 1.147 5.773 5.773 0 00-.99 1.663 7.703 7.703 0 00-.487 2.008h9.692v-.001zm5.45 8.461V15.774h1.721V36.42h-1.721zm8.03 5.85h-1.721V21.566h1.721v2.61h.058c.248-.477.568-.907.96-1.29a5.606 5.606 0 011.291-.947c.467-.248.951-.44 1.448-.573a5.563 5.563 0 011.462-.201c1.204 0 2.227.2 3.069.602a5.706 5.706 0 012.079 1.649c.544.698.941 1.525 1.19 2.48.248.956.373 1.978.373 3.067 0 1.033-.134 2.027-.401 2.982-.269.957-.674 1.792-1.22 2.51a6.04 6.04 0 01-2.064 1.72c-.833.43-1.812.646-2.939.646a6.857 6.857 0 01-3.026-.702 5.322 5.322 0 01-2.279-2.078v8.229h-.001zm0-13.219c0 .842.114 1.64.344 2.395.229.756.56 1.415.99 1.978a4.848 4.848 0 001.577 1.349c.62.334 1.323.501 2.108.501.879 0 1.649-.177 2.307-.53a4.54 4.54 0 001.621-1.448c.421-.612.726-1.324.917-2.137a9.714 9.714 0 00.23-2.624c0-.936-.128-1.763-.387-2.48-.258-.716-.616-1.323-1.075-1.82a4.602 4.602 0 00-1.607-1.134 5.099 5.099 0 00-2.006-.387c-.803 0-1.521.162-2.151.487a4.53 4.53 0 00-1.577 1.334c-.421.564-.74 1.234-.961 2.008a9.15 9.15 0 00-.329 2.51h-.001v-.002zM28.675 15.57l-8.039 3.538L5.223 10.32 28.675 0v15.57zm-7.885 5.575v15.573l-.137.062-.613.268-7.136 3.121v-7.767l-.56.259-3.368 1.558v7.667L0 45.812V30.237l4.581-2.003.613-.269.612-.268 14.984-6.552z" fill="#2D2D2D"/><path d="M4.3 27.024l.193-15.642 15.299 8.833L4.3 27.024z" fill="#17C182"/></svg>